<svg xmlns="http://www.w3.org/2000/svg" width="500" height="103.288" viewBox="0 0 500 103.288"><g transform="translate(-105.243 -65.172)"><path d="M465.143,145.642c3.226-2.482,6.2-5.211,9.677-7.445,13.151-8.189,26.551-16.377,39.7-24.566,1.241-.745,2.482-1.737,4.219-2.978-4.963-4.218-9.678-7.692-14.144-11.662-1.489-1.489-2.978-4.219-2.482-5.708s3.722-2.978,5.708-2.978c11.911-.5,23.821-.5,35.98-.5,6.7,0,12.9-1.241,18.611-5.212,7.94-5.459,16.377-10.174,24.813-15.137l1.489.745L586.234,88.57H628.17l1.241,1.985c-2.482,1.985-4.715,4.715-7.444,5.955-8.437,3.474-17.37,5.955-25.807,9.181A69.126,69.126,0,0,0,584,111.647c-1.488.993-2.73,3.474-3.226,5.211-1.737,8.685-2.978,17.618-4.963,26.551a124.881,124.881,0,0,1-4.466,13.9c-5.707-5.459-10.174-9.926-14.889-14.144S546.78,134.724,541.817,131a6.8,6.8,0,0,0-4.962-.248c-18.611,6.2-37.221,12.159-55.583,18.859-16.129,5.707-32.01,12.407-47.891,18.61a7.568,7.568,0,0,1-5.707,0l106.7-42.68c-.5-.745-.745-1.24-1.24-1.985-9.926-9.926-9.926-9.926-21.837-2.482-14.64,8.933-29.28,17.618-43.92,26.552ZM528.666,111.4a105.392,105.392,0,0,1,9.678,8.684c2.481,2.482,4.466,2.234,7.444.993,7.445-3.226,15.137-6.2,22.581-9.181,8.932-3.721,9.925-5.459,9.181-15.632-18.611-2.73-34.988,1.985-48.884,15.137Zm40.943,35.236,5.211-31.514-28.784,11.662ZM514.274,96.758l-.5,1.489c2.978,2.73,6.2,5.459,9.429,7.941a3.2,3.2,0,0,0,2.978.248c4.963-2.978,9.926-5.955,15.881-9.678Zm68.982,9.181,23.325-9.677c-3.721-.745-6.2-1.24-8.684-1.489-12.159-1.736-14.641.249-14.641,11.166Zm-2.233-27.046L564.646,88.57h14.64Z" transform="translate(-24.168 -0.322)" fill="#1a63a3"/><path d="M105.243,69.362a143.638,143.638,0,0,1,17.618-1.24c8.684,0,14.888,1.24,19.106,4.715,3.474,2.73,5.46,6.948,5.46,12.407A15.2,15.2,0,0,1,137,99.636v.249c4.219,1.736,6.452,5.707,7.941,10.917,1.737,6.7,3.722,14.393,4.715,16.626H136.013c-.993-1.737-2.482-6.452-4.219-13.648-1.488-7.444-4.218-9.429-9.429-9.429h-3.97v23.077H105.243Zm13.151,25.31h5.211c6.7,0,10.67-3.226,10.67-8.436,0-5.459-3.722-8.189-9.678-8.189a24.141,24.141,0,0,0-5.955.5l-.248,16.128Z" transform="translate(0 -0.221)" fill="#1a63a3"/><path d="M170.763,111.573c.5,5.459,5.955,8.189,12.159,8.189a39.57,39.57,0,0,0,11.911-1.737l1.736,8.933a46.728,46.728,0,0,1-15.384,2.73c-14.392,0-22.828-8.437-22.828-21.837,0-10.918,6.7-22.828,21.588-22.828,13.9,0,19.107,10.669,19.107,21.34a36.93,36.93,0,0,1-.5,5.211Zm15.632-9.181c0-3.226-1.488-8.685-7.444-8.685-5.708,0-7.941,4.963-8.188,8.685Z" transform="translate(-3.981 -1.488)" fill="#1a63a3"/><path d="M250.842,114.859c0,5.708.248,10.174.248,13.648H239.675l-.5-5.955h-.249a15.253,15.253,0,0,1-13.4,6.948c-8.684,0-15.136-5.46-15.136-18.611V85.826h13.4V108.9c0,6.2,1.985,9.926,6.7,9.926a6.924,6.924,0,0,0,6.7-4.715,12.465,12.465,0,0,0,.5-2.978V85.826h13.4l-.248,29.033Z" transform="translate(-7.882 -1.548)" fill="#1a63a3"/><path d="M265.634,99.412c0-5.211-.249-9.926-.249-13.648H276.8l.5,5.955h.248a14.9,14.9,0,0,1,13.151-6.7c8.685,0,15.385,5.707,15.385,18.362v25.31H292.929V104.871c0-5.459-1.985-9.181-6.7-9.181a7.152,7.152,0,0,0-6.7,4.963,7.335,7.335,0,0,0-.5,3.226v24.566h-13.4Z" transform="translate(-12.003 -1.486)" fill="#1a63a3"/><path d="M334.52,72.676c0,3.722-2.73,6.7-7.2,6.7a6.7,6.7,0,1,1,0-13.4C331.79,65.976,334.52,68.706,334.52,72.676Zm-13.648,54.591V84.338h13.4v42.681h-13.4Z" transform="translate(-16.125 -0.06)" fill="#1a63a3"/><path d="M388.15,65.172v49.379c0,4.715.248,9.926.248,12.656H376.487l-.5-6.2h-.248c-2.73,4.714-7.941,7.2-13.4,7.2-10.174,0-18.362-8.685-18.362-21.837,0-14.392,8.933-22.828,19.107-22.828,5.211,0,9.429,1.736,11.166,4.714h.248V65.172Zm-13.4,37.22a9.283,9.283,0,0,0-.249-2.481,7.943,7.943,0,0,0-7.692-6.452c-5.955,0-9.181,5.46-9.181,12.159,0,7.2,3.474,11.911,9.181,11.911a7.943,7.943,0,0,0,7.692-6.451,6.1,6.1,0,0,0,.249-2.978v-5.708Z" transform="translate(-17.895 0)" fill="#1a63a3"/><path d="M427.091,128.714l-.745-4.218H426.1c-2.73,3.474-7.2,5.211-12.159,5.211-8.684,0-13.9-6.2-13.9-13.151,0-11.166,9.926-16.377,25.062-16.377v-.5c0-2.233-1.241-5.459-7.692-5.459A25.189,25.189,0,0,0,405.5,97.449l-2.482-8.436c2.978-1.737,8.933-3.722,16.626-3.722,14.144,0,18.858,8.436,18.858,18.362v14.889c0,3.474.249,6.948.5,10.422l-11.911-.248ZM425.6,108.367c-6.948,0-12.408,1.488-12.408,6.7,0,3.474,2.234,4.963,5.212,4.963a7.227,7.227,0,0,0,6.947-4.963,6.848,6.848,0,0,0,.249-2.233v-4.466Z" transform="translate(-22.097 -1.508)" fill="#1a63a3"/><path d="M452.708,117.031a26.293,26.293,0,0,0,11.414,3.226c3.97,0,5.708-1.488,5.708-3.474,0-2.233-1.241-3.226-6.2-4.963-8.933-2.978-12.159-7.692-12.159-12.9,0-7.94,6.7-13.9,17.37-13.9A29.63,29.63,0,0,1,481,87.5l-2.482,9.181a24.121,24.121,0,0,0-9.181-2.481c-3.226,0-4.963,1.24-4.963,3.474,0,1.985,1.737,2.978,6.948,4.963,8.189,2.73,11.414,6.948,11.663,13.151,0,7.941-6.2,13.9-18.611,13.9a30.408,30.408,0,0,1-13.9-2.978Z" transform="translate(-25.877 -1.488)" fill="#1a63a3"/></g></svg>